<?xml version="1.0" standalone="no"?>
<!DOCTYPE svg PUBLIC "-//W3C//DTD SVG 20010904//EN"
 "http://www.w3.org/TR/2001/REC-SVG-20010904/DTD/svg10.dtd">
<svg version="1.0" xmlns="http://www.w3.org/2000/svg"
 width="512.000000pt" height="512.000000pt" viewBox="0 0 512.000000 512.000000"
 preserveAspectRatio="xMidYMid meet">
<metadata>
Created by potrace 1.14, written by Peter Selinger 2001-2017
</metadata>
<g transform="translate(0.000000,512.000000) scale(0.100000,-0.100000)"
fill="#000000" stroke="none">
<path d="M384 5030 c-115 -17 -214 -133 -214 -251 0 -49 29 -126 61 -163 24
-27 24 -31 24 -228 1 -131 -3 -201 -10 -203 -5 -2 -22 -6 -37 -9 -38 -9 -88
-54 -108 -99 -16 -36 -17 -137 -15 -1525 1 -1369 3 -1490 18 -1519 21 -40 71
-79 117 -90 l35 -9 1 -198 c1 -190 0 -200 -21 -225 -46 -54 -59 -93 -59 -171
0 -65 4 -82 28 -123 109 -184 372 -169 456 25 40 93 23 194 -47 275 -16 18
-18 40 -16 194 0 96 2 186 2 202 l1 27 196 0 c183 0 199 1 235 22 44 25 79 85
79 137 0 39 46 90 82 92 49 3 65 -6 229 -116 93 -63 186 -119 208 -125 51 -13
569 -14 620 0 59 16 100 49 170 135 74 92 85 101 128 108 47 7 82 -17 154
-108 70 -86 111 -119 171 -135 58 -16 575 -16 624 0 21 7 116 64 209 126 137
92 177 114 205 114 56 -1 100 -47 100 -107 0 -43 40 -104 84 -126 34 -18 58
-20 232 -20 173 1 194 -1 195 -16 0 -9 1 -100 1 -202 1 -181 0 -188 -22 -210
-62 -65 -78 -178 -39 -268 57 -133 212 -191 342 -127 63 30 87 55 120 120 43
85 32 178 -33 271 l-28 40 1 194 2 194 45 13 c25 7 58 26 72 41 59 62 56 -35
53 1583 -2 1378 -4 1487 -19 1518 -22 40 -70 77 -116 89 l-35 9 -1 199 -1 199
33 44 c127 165 7 406 -201 404 -143 -1 -248 -103 -256 -247 -4 -62 30 -151 69
-181 12 -8 14 -48 14 -200 0 -104 -1 -197 -1 -206 -1 -16 -19 -17 -196 -17
-182 0 -198 -1 -234 -21 -46 -27 -68 -62 -81 -131 -11 -59 -29 -83 -69 -97
-42 -15 -79 3 -253 121 -86 58 -174 110 -195 116 -52 14 -570 15 -620 2 -63
-18 -98 -46 -175 -140 -80 -98 -107 -115 -168 -98 -19 5 -46 23 -60 40 -123
153 -165 188 -235 201 -16 3 -154 6 -305 7 -242 1 -280 -1 -319 -17 -24 -9
-116 -66 -204 -126 -126 -84 -168 -108 -195 -108 -63 0 -94 35 -105 116 -6 52
-39 98 -85 120 -28 13 -70 16 -228 17 -190 0 -194 0 -195 21 -1 12 -1 103 -1
203 l0 181 30 39 c140 178 -16 438 -244 403z"/>
</g>
</svg>
